<svg version="1.1" id="Layer_1" xmlns="http://www.w3.org/2000/svg" xmlns:xlink="http://www.w3.org/1999/xlink" x="0px" y="0px"
	 width="100%" viewBox="0 0 384 384" enable-background="new 0 0 384 384" xml:space="preserve">
<path fill="#000000" opacity="1.000000" stroke="none" 
	d="
M218.000000,385.000000 
	C146.666687,385.000000 75.833305,384.968384 5.000212,385.096405 
	C1.575721,385.102600 0.901798,384.423889 0.904887,380.999939 
	C1.017984,255.666733 1.017975,130.333405 0.904908,5.000193 
	C0.901819,1.576541 1.575871,0.901788 4.999978,0.904878 
	C130.333191,1.017988 255.666519,1.017978 380.999725,0.904917 
	C384.423218,0.901829 385.098236,1.575653 385.095154,4.999909 
	C384.982025,130.333115 384.982025,255.666458 385.095062,380.999664 
	C385.098145,384.423004 384.425629,385.106049 381.000000,385.097290 
	C326.833588,384.958862 272.666748,385.000000 218.000000,385.000000 
z"/>
<path fill="#FF6A00" opacity="1.000000" stroke="none" 
	d="
M146.619019,79.775963 
	C150.798798,81.913055 153.444839,85.381516 156.335815,88.491653 
	C158.683395,91.017181 160.004715,90.597878 162.154602,88.336693 
	C167.779709,82.420410 173.727707,76.811913 179.386581,70.926491 
	C181.180054,69.061203 182.353775,68.868515 184.101425,70.878555 
	C186.064697,73.136597 188.485626,75.004036 190.389175,77.304741 
	C192.471298,79.821281 193.875641,79.319740 195.928482,77.192490 
	C198.670151,74.351440 201.286377,69.275932 204.526428,69.586540 
	C207.638351,69.884872 210.354691,74.563553 213.196213,77.366714 
	C217.111328,81.228958 221.066132,85.057289 224.830963,89.062721 
	C226.521149,90.860931 227.765610,90.890991 229.184647,88.977768 
	C229.282806,88.845436 229.416718,88.739090 229.536926,88.623703 
	C232.415283,85.860878 235.293854,80.888054 238.172806,80.887794 
	C241.886276,80.887459 244.498123,86.063103 247.516022,89.064636 
	C266.067719,107.515900 284.479004,126.109039 303.120667,144.468475 
	C305.854736,147.161148 305.884308,148.648514 303.030121,150.978790 
	C300.460693,153.076614 298.258057,155.623672 295.572418,158.181595 
	C295.182312,162.228638 292.173523,164.180176 289.829803,166.417465 
	C287.228668,168.900497 286.839996,171.001465 289.740204,173.419235 
	C290.756592,174.266571 291.646118,175.281601 292.518066,176.289642 
	C296.021881,180.340240 296.005890,182.684799 292.468597,186.768311 
	C287.018738,193.059662 287.018768,193.059677 292.352325,199.096390 
	C296.111786,203.351501 296.110199,205.676041 292.327332,209.927948 
	C287.438507,215.422943 281.491089,219.781784 276.242035,224.893631 
	C273.534058,227.530823 270.638733,227.502548 267.803040,224.964600 
	C267.554840,224.742493 267.303741,224.523422 267.052795,224.304459 
	C260.922821,218.955521 260.922607,218.955765 255.089584,224.177521 
	C250.667557,228.136169 248.305847,228.130417 243.878693,224.146713 
	C243.507263,223.812515 243.157730,223.454636 242.795517,223.110443 
	C237.998154,218.551712 237.997818,218.552032 233.362518,222.953903 
	C227.774323,228.260696 226.216202,228.246750 220.520966,222.838928 
	C215.994858,218.541214 215.994873,218.541199 211.460648,222.858154 
	C205.470123,228.561646 203.384430,228.669220 197.746094,223.030548 
	C177.019760,202.302872 156.176178,181.692047 135.453156,160.471375 
	C135.152283,159.677673 135.093277,159.198853 135.178406,158.355316 
	C136.312561,155.661163 138.459610,154.287277 140.177261,152.540665 
	C144.996231,147.640472 145.016220,147.325211 140.029572,142.343185 
	C138.630310,140.945236 137.167297,139.617310 135.405426,138.093094 
	C132.179596,133.915451 127.954033,131.095856 125.234566,126.494965 
	C124.550385,122.632027 127.121956,120.734512 129.135651,118.591660 
	C133.478745,113.969994 133.494080,114.004051 129.255081,109.543678 
	C127.321846,107.509483 125.062500,105.669365 124.777824,102.213654 
	C125.064629,100.144547 125.976562,98.736603 127.184830,97.608093 
	C133.542236,91.670334 138.682922,84.427452 146.619019,79.775963 
z"/>
<path fill="#FDE200" opacity="1.000000" stroke="none" 
	d="
M306.622437,239.340714 
	C308.770996,234.040771 313.512482,231.461197 316.850006,227.635468 
	C318.239197,226.043030 319.198425,227.715134 320.065460,228.575394 
	C326.215851,234.677597 332.282013,240.865707 338.489349,246.908997 
	C340.571777,248.936386 340.407288,250.532776 338.280731,252.226257 
	C338.151184,252.329437 338.036652,252.452774 337.922211,252.573471 
	C335.303192,255.335846 330.722809,257.999237 330.575623,260.888275 
	C330.401093,264.313934 335.390991,266.700012 338.115112,269.554626 
	C342.370209,274.013580 346.805115,278.300934 351.160400,282.664429 
	C351.395203,282.899658 351.598480,283.166321 351.999390,283.629913 
	C348.279572,287.139709 344.546143,290.662354 340.605225,294.380768 
	C343.922974,297.601166 346.762726,300.679413 349.946960,303.346344 
	C352.487183,305.473877 351.912048,306.735779 349.814484,308.787079 
	C340.046082,318.340057 330.348572,327.970825 320.848785,337.789581 
	C318.448425,340.270508 317.169769,339.965942 314.967285,337.710297 
	C312.126129,334.800659 309.578674,329.640106 306.032898,329.913696 
	C302.959045,330.150879 300.016357,334.712891 297.420197,337.713379 
	C295.212891,340.264435 293.962250,339.533020 292.001007,337.486053 
	C286.353455,331.591644 280.421906,325.969635 274.763672,320.085083 
	C272.898010,318.144836 271.472809,317.480560 269.725616,319.968903 
	C269.631317,320.103210 269.499756,320.214569 269.373779,320.322968 
	C266.368530,322.908478 263.986969,328.188660 260.661835,327.827179 
	C257.533630,327.487061 254.843735,322.833832 252.020706,320.018372 
	C240.929886,308.957214 229.792343,297.941193 218.841217,286.743042 
	C216.420380,284.267609 214.962448,283.452728 212.301270,286.525757 
	C209.876404,289.325958 207.432007,293.978485 204.050629,293.649780 
	C201.187027,293.371399 198.655182,289.144287 196.075119,286.565918 
	C162.364838,252.877777 128.724548,219.119171 94.889214,185.557190 
	C91.701263,182.395004 91.777771,180.867233 94.933632,177.900696 
	C102.638390,170.658188 102.482033,170.491882 95.099289,163.109100 
	C83.434174,151.443909 71.825417,139.721329 60.054996,128.163391 
	C57.786270,125.935608 57.391754,124.576607 59.994263,122.334389 
	C62.867573,119.858856 67.218338,117.011017 67.429138,114.074356 
	C67.678055,110.606606 62.643360,108.267616 59.943954,105.406227 
	C56.057827,101.286896 52.063679,97.255325 47.907497,93.411339 
	C46.038956,91.683151 46.159546,90.531639 47.997707,89.136253 
	C48.260727,88.936584 48.487103,88.682655 48.707142,88.433281 
	C51.327068,85.464058 56.538673,83.024803 56.224045,79.747101 
	C55.926411,76.646484 51.413483,73.769836 48.433586,71.161331 
	C45.783375,68.841431 45.916378,67.371902 48.432430,64.932861 
	C58.242172,55.423359 67.877022,45.730572 77.440056,35.971836 
	C79.395325,33.976562 80.588524,33.721161 82.508034,35.929363 
	C85.235817,39.067398 88.279167,41.931110 91.252029,44.977974 
	C94.943481,41.123688 98.476219,37.435104 102.248787,33.496117 
	C109.335182,40.665962 116.056992,47.340969 122.608910,54.178764 
	C124.393990,56.041718 125.370819,56.123974 127.353981,54.295620 
	C130.447357,51.443718 132.584183,45.979603 136.899460,46.413837 
	C140.638382,46.790081 142.983154,51.652306 145.968369,54.502518 
	C149.703491,58.068722 153.199738,61.887630 156.979767,65.403221 
	C158.946442,67.232338 159.479919,68.535400 157.162766,70.519043 
	C153.889389,73.321266 150.857361,76.405403 147.357178,79.368607 
	C143.346161,79.895439 141.713852,76.923569 139.681671,74.914742 
	C137.435684,72.694588 135.826385,72.618622 133.422623,74.822365 
	C125.392815,82.184036 124.790962,82.075424 116.901024,74.217369 
	C113.242210,70.573341 109.502563,67.002930 105.967140,63.245090 
	C103.397438,60.513721 101.254601,60.611855 98.953224,63.377701 
	C98.530716,63.885475 99.088791,63.275864 98.602654,63.732059 
	C91.228516,70.651932 90.849770,70.657333 83.612625,63.945942 
	C79.970879,60.568760 79.789467,60.758850 75.578781,64.648735 
	C72.537544,67.458275 72.368935,69.746178 75.616592,72.324631 
	C76.522621,73.043961 77.290077,73.947113 78.069122,74.814819 
	C81.814392,78.986252 81.921738,81.063515 78.099442,85.109390 
	C72.529007,91.005653 71.150024,90.070580 78.401085,97.031296 
	C85.859970,104.191521 92.602013,112.016594 99.731239,119.480743 
	C103.988701,123.938225 103.983063,126.049591 99.756493,130.498810 
	C93.642570,136.934799 92.795677,135.518524 100.019226,142.687119 
	C108.767250,151.368591 117.294548,160.273071 126.565460,168.928925 
	C129.911926,173.346695 134.882538,175.996811 136.686142,181.589600 
	C136.018875,184.917007 133.709717,186.726822 131.650482,188.580627 
	C128.636093,191.294296 128.620239,193.479385 131.586899,196.347031 
	C141.261383,205.698593 150.502975,215.491470 160.572830,224.942719 
	C170.075333,235.172897 180.038101,244.459930 189.503540,254.235367 
	C192.039078,256.853973 194.097198,257.062653 196.469940,254.233200 
	C197.423798,253.095764 198.593658,252.137146 199.696167,251.127975 
	C202.690872,248.386795 205.581009,248.562347 208.496994,251.280090 
	C211.284576,253.878143 213.806747,256.782654 217.354126,259.054077 
	C226.435898,270.186035 237.062103,279.332092 246.768250,289.369476 
	C248.668808,291.334900 250.257477,291.100922 252.313492,289.361176 
	C261.550507,281.544983 261.399811,281.815155 270.530151,290.050842 
	C277.704895,296.522583 284.649902,303.211090 291.366302,310.132660 
	C294.146393,312.997650 296.278625,312.965912 298.694122,309.997894 
	C299.320068,309.228821 300.090912,308.571655 300.834869,307.905731 
	C305.003784,304.173920 306.987457,304.169647 311.139465,307.883179 
	C311.883728,308.548889 312.572296,309.274048 313.289368,309.968811 
	C317.570099,314.116272 317.552338,313.946228 321.963623,309.809937 
	C325.041016,306.924438 324.957855,304.643188 321.810272,302.113342 
	C321.037750,301.492401 320.381744,300.718475 319.722992,299.968231 
	C316.237579,295.998932 316.241486,293.998474 319.724396,290.026184 
	C325.786102,283.112854 325.784668,283.114288 319.325531,276.643829 
	C316.033478,273.346008 312.683167,270.104767 309.461456,266.738708 
	C304.669556,261.732147 304.656097,259.428253 309.248199,254.465775 
	C309.813263,253.855118 310.355652,253.208252 310.993134,252.682968 
	C313.745941,250.414749 313.285980,248.397949 310.863220,246.113861 
	C308.976776,244.335358 306.673492,242.690002 306.622437,239.340714 
z"/>
<path fill="#FB2D00" opacity="1.000000" stroke="none" 
	d="
M216.742126,260.143127 
	C212.122299,259.390564 210.372055,255.497208 207.683594,252.894485 
	C205.208710,250.498520 203.813309,249.754089 200.996429,252.659363 
	C192.992111,260.914856 192.828995,260.779083 184.563339,252.484238 
	C176.212769,244.104233 167.887909,235.698563 159.431335,226.991348 
	C158.855835,222.720413 161.915146,220.776199 164.220093,218.558456 
	C166.561234,216.305908 166.466476,214.663452 164.183350,212.426453 
	C156.024292,204.432297 147.975449,196.324829 139.934113,188.211365 
	C138.328583,186.591431 136.377213,185.153030 136.109085,182.254745 
	C132.557480,178.160858 128.996017,174.414169 125.282120,170.326431 
	C126.499496,164.681091 130.190247,161.596115 135.410004,159.704498 
	C138.340805,160.144104 139.681030,162.212646 141.298874,163.826981 
	C160.850616,183.336227 180.455231,202.793976 199.828690,222.479065 
	C203.305557,226.011856 205.449463,226.407013 208.987076,222.601700 
	C215.697891,215.383087 216.108261,215.389954 222.929306,222.698090 
	C226.229721,226.234177 228.186127,225.716705 231.222000,222.510223 
	C237.919067,215.436829 238.068466,215.578308 244.906570,222.377686 
	C249.503769,226.948792 249.503799,226.948792 254.257263,222.213806 
	C260.971497,215.525665 261.215057,215.303925 267.560944,222.274536 
	C271.078430,226.138306 273.200134,225.885086 276.582001,222.195374 
	C281.285065,217.064178 286.569977,212.455963 291.721436,207.750412 
	C294.272156,205.420502 294.144592,203.639267 291.747437,201.149796 
	C283.906189,193.006622 283.893311,192.829559 291.582001,185.025543 
	C294.177917,182.390701 294.131897,180.657928 291.568787,178.042526 
	C283.609467,169.920898 283.699951,169.831726 291.669830,161.860626 
	C292.728607,160.801697 293.791138,159.746536 295.051575,158.540115 
	C300.734131,165.783035 307.823151,171.645538 314.284332,178.088928 
	C317.084778,180.881622 317.051056,182.360184 314.243805,185.057312 
	C306.222260,192.764191 306.212097,193.032822 314.151245,200.594543 
	C317.116272,203.418610 317.362610,205.088562 314.208130,207.950882 
	C308.539368,213.094635 303.420685,218.840652 297.825745,224.071472 
	C295.331909,226.403015 295.546570,227.863922 297.922577,230.001389 
	C300.760223,232.554138 303.274841,235.465973 305.980316,238.608337 
	C306.104126,241.450073 304.402130,242.904190 302.891174,244.423309 
	C294.923950,252.433609 286.980133,260.468384 278.911926,268.376648 
	C273.667175,273.517487 271.400726,273.428894 265.930389,268.257446 
	C260.871613,263.475067 260.871613,263.475067 255.813690,268.546356 
	C250.170135,274.204803 249.013702,274.225250 243.295807,268.620026 
	C239.143280,264.549316 234.981125,260.482300 230.971130,256.275269 
	C228.236969,253.406723 225.932526,253.039627 223.122040,256.153137 
	C221.508499,257.940643 219.935532,260.096069 216.742126,260.143127 
z"/>
<path fill="#020100" opacity="1.000000" stroke="none" 
	d="
M135.812531,159.521347 
	C132.417923,163.018265 129.056732,166.247803 125.412613,169.731354 
	C114.359535,159.328232 103.623016,148.636642 92.782021,138.052078 
	C91.204483,136.511871 91.764931,135.662003 92.981575,134.487885 
	C95.259079,132.290009 97.345940,129.876846 99.749916,127.832954 
	C102.019363,125.903427 102.189148,124.671196 99.902855,122.373619 
	C90.538162,112.962639 81.501480,103.225769 72.170647,93.780167 
	C70.091278,91.675224 69.636345,90.506660 72.051208,88.314011 
	C74.821899,85.798271 79.605484,83.221260 79.272820,80.136665 
	C78.949020,77.134254 74.696068,74.317230 71.771751,71.898224 
	C68.619041,69.290283 69.138382,67.633163 71.858521,65.018013 
	C79.877975,57.308094 79.944000,57.024323 87.470833,65.037186 
	C90.443283,68.201576 91.965958,67.831093 94.743553,64.903809 
	C102.311813,56.927662 102.453629,57.064579 110.180153,64.787460 
	C114.305298,68.910667 118.586792,72.891396 122.503761,77.203445 
	C124.680687,79.599937 125.945984,79.253586 128.013336,77.112556 
	C130.747299,74.281181 133.813477,68.762482 136.499527,69.551735 
	C140.451660,70.713005 143.338760,75.498955 146.835861,79.054520 
	C146.992188,79.368179 146.992523,79.565056 146.987427,79.661911 
	C140.924271,87.845299 132.928528,94.073936 125.996155,101.781174 
	C124.956657,106.065811 121.854675,108.444725 119.191994,111.083000 
	C117.088364,113.167358 117.174301,114.825974 119.189674,116.932304 
	C121.543976,119.392838 124.632965,121.343636 125.657059,125.291870 
	C129.191010,129.125305 132.537460,132.670547 135.967804,136.538879 
	C136.136597,139.912018 133.722427,141.406876 131.983032,143.283218 
	C128.085327,147.487808 128.076309,147.505997 131.873016,151.597214 
	C133.517532,153.369293 135.680573,154.801376 136.042023,157.842010 
	C135.979401,158.545547 135.912689,158.899765 135.812531,159.521347 
z"/>
<path fill="#030200" opacity="1.000000" stroke="none" 
	d="
M216.205276,260.472260 
	C219.868347,256.814667 223.132980,251.182877 226.876907,250.843842 
	C230.829880,250.485855 233.823639,256.704834 237.310379,259.968964 
	C240.831711,263.265411 244.238678,266.694366 247.537628,270.213470 
	C249.037170,271.813110 250.002213,271.809296 251.463867,270.199005 
	C253.809906,267.614380 256.467041,265.312103 258.811676,262.726318 
	C260.308258,261.075806 261.364288,261.160217 262.806183,262.743927 
	C264.820679,264.956512 267.186707,266.862671 269.091370,269.157959 
	C271.287048,271.803864 272.773529,271.819550 275.282623,269.235413 
	C285.134155,259.089203 295.253448,249.203064 305.652283,239.107376 
	C306.031250,238.994415 306.488220,238.991028 306.603210,238.997162 
	C306.991882,239.190384 307.305969,239.338013 307.533112,239.570526 
	C310.670319,242.781815 315.748810,245.677948 316.358124,249.319489 
	C316.933044,252.755554 311.319183,255.656067 308.265503,258.594330 
	C306.051117,260.725006 307.092773,261.762970 308.689209,263.328979 
	C314.634552,269.161102 320.417419,275.160400 326.420959,280.930786 
	C328.372192,282.806244 328.678864,283.961639 326.551941,285.985046 
	C323.576721,288.815491 318.507111,291.392487 318.539185,294.937225 
	C318.571289,298.484070 323.628387,301.050568 326.592163,303.917328 
	C328.590240,305.849976 328.081238,306.920502 326.398071,308.683044 
	C317.773132,317.714844 317.673645,317.903900 309.094330,308.928741 
	C306.261078,305.964813 304.823578,306.441132 302.283051,309.096375 
	C295.103821,316.599792 295.060303,316.418396 287.444580,308.985016 
	C279.375397,301.108978 271.092255,293.451782 263.045288,285.553589 
	C261.211884,283.754089 260.074341,283.956726 258.718231,285.777527 
	C258.619751,285.909790 258.492279,286.023071 258.367249,286.132568 
	C255.282974,288.833374 252.740601,294.288696 249.394592,293.920776 
	C246.133102,293.562134 243.287521,288.756531 240.402649,285.765137 
	C232.331390,277.395782 223.551407,269.719452 216.205276,260.472260 
z"/>
<path fill="#FA2D00" opacity="1.000000" stroke="none" 
	d="
M145.115311,280.695526 
	C147.220200,282.367462 147.691071,283.496979 145.694016,285.611511 
	C136.662064,295.174835 136.746017,295.254700 127.495682,286.003601 
	C112.540962,271.047699 97.643814,256.033295 82.573257,241.195053 
	C80.195023,238.853485 80.247765,237.545837 82.633003,235.412918 
	C85.463303,232.882004 89.848618,230.070358 90.048523,227.140778 
	C90.285919,223.661591 85.250305,221.322342 82.545479,218.454849 
	C78.661858,214.337677 74.627510,210.356720 70.535995,206.444702 
	C69.011612,204.987198 68.953888,204.134521 70.426826,202.465820 
	C79.285721,192.429581 79.232895,192.382980 88.655045,201.805130 
	C107.260902,220.410995 125.810410,239.073944 144.536407,257.558105 
	C147.191330,260.178772 147.283554,261.557343 144.565430,264.188416 
	C136.443741,272.050049 136.567902,272.178314 145.115311,280.695526 
z"/>
<path fill="#F52D00" opacity="1.000000" stroke="none" 
	d="
M125.963562,125.283890 
	C122.541687,122.373360 119.335487,119.058037 115.899895,116.000458 
	C113.819595,114.149040 114.334282,112.953476 116.097122,111.323540 
	C119.239304,108.418236 122.207275,105.324532 125.541245,102.197342 
	C127.220306,105.859245 130.529709,108.039749 133.261734,110.589500 
	C136.063797,113.204636 135.827606,114.943268 133.143707,117.390358 
	C130.602219,119.707619 127.828453,121.895844 125.963562,125.283890 
z"/>
<path fill="#FB2D00" opacity="1.000000" stroke="none" 
	d="
M136.375320,158.092590 
	C132.287247,154.936295 126.506165,151.690598 126.222931,147.571228 
	C125.960564,143.755493 132.206360,140.714355 135.746704,137.028717 
	C140.237549,138.779465 142.799194,142.493103 145.765152,145.737976 
	C147.074982,147.170975 146.900253,148.727188 145.397095,150.057205 
	C142.458328,152.657455 140.236481,156.042908 136.375320,158.092590 
z"/>
<path fill="#030200" opacity="1.000000" stroke="none" 
	d="
M135.872437,182.145691 
	C146.847931,192.505356 157.546555,203.134293 168.339096,213.666992 
	C169.932938,215.222458 169.823685,216.164932 168.293030,217.604904 
	C165.396042,220.330215 162.662476,223.229233 159.585938,226.367340 
	C148.572800,216.046997 137.857834,205.391876 127.071022,194.810013 
	C125.507881,193.276611 125.553879,192.269592 127.133194,190.806351 
	C130.056152,188.098206 132.804703,185.201828 135.872437,182.145691 
z"/>
</svg>